<svg width="268" height="268" viewBox="0 0 268 268" fill="none" xmlns="http://www.w3.org/2000/svg">
<path d="M178.114 29.3192C178.114 29.3192 136.842 14.6488 96.3419 38.0077C55.8417 61.3666 35.3772 107.736 17.8447 144.891C0.312103 182.047 10.3943 219.824 41.3161 237.051C72.2379 254.278 93.2652 228.872 136.644 227.645C180.022 226.417 191.686 232.624 227.683 208.107C263.681 183.591 270.183 125.729 241.791 82.9084C213.399 40.0874 178.114 29.3192 178.114 29.3192Z" fill="#FF0030"/>
<path opacity="0.7" d="M178.114 29.3192C178.114 29.3192 136.842 14.6488 96.3419 38.0077C55.8417 61.3666 35.3772 107.736 17.8447 144.891C0.312103 182.047 10.3943 219.824 41.3161 237.051C72.2379 254.278 93.2652 228.872 136.644 227.645C180.022 226.417 191.686 232.624 227.683 208.107C263.681 183.591 270.183 125.729 241.791 82.9084C213.399 40.0874 178.114 29.3192 178.114 29.3192Z" fill="white"/>
<path d="M69.1559 32.3744H16.6172V102.928H69.1559V32.3744Z" stroke="#676F74" stroke-linecap="round" stroke-linejoin="round"/>
<path d="M64.1225 39.1279H21.6445V96.169H64.1225V39.1279Z" stroke="#676F74" stroke-linecap="round" stroke-linejoin="round"/>
<path d="M112.024 74.5951H75.7578V123.296H112.024V74.5951Z" stroke="#676F74" stroke-linecap="round" stroke-linejoin="round"/>
<path d="M108.554 79.2583H79.2344V118.633H108.554V79.2583Z" stroke="#676F74" stroke-linecap="round" stroke-linejoin="round"/>
<path d="M223.662 21.4668H225.656C234.469 21.4668 242.922 24.968 249.154 31.2002C255.386 37.4324 258.888 45.8851 258.888 54.6988V178.772H190.43V54.6988C190.43 45.8851 193.931 37.4324 200.163 31.2002C206.395 24.968 214.848 21.4668 223.662 21.4668V21.4668Z" stroke="#676F74" stroke-linecap="round" stroke-linejoin="round"/>
<path d="M198.156 178.402V56.816C198.156 49.7892 200.948 43.0503 205.916 38.0816C210.885 33.1129 217.624 30.3215 224.651 30.3215V30.3215C228.13 30.3215 231.575 31.0069 234.789 32.3384C238.003 33.6699 240.923 35.6216 243.383 38.0819C245.843 40.5422 247.794 43.463 249.125 46.6774C250.456 49.8918 251.141 53.337 251.14 56.816V178.402" stroke="#676F74" stroke-linecap="round" stroke-linejoin="round"/>
<path d="M224.652 21.4668V178.584" stroke="#676F74" stroke-linecap="round" stroke-linejoin="round"/>
<path d="M190.797 51.7347H258.408" stroke="#676F74" stroke-linecap="round" stroke-linejoin="round"/>
<path d="M231.56 67.788L230.145 68.86" stroke="#676F74" stroke-linecap="round" stroke-linejoin="round"/>
<path d="M249.305 54.3021L234.398 65.6332" stroke="#676F74" stroke-linecap="round" stroke-linejoin="round"/>
<path d="M242.791 63.114L234.746 69.2459" stroke="#676F74" stroke-linecap="round" stroke-linejoin="round"/>
<path d="M216.955 122.235L203.711 133.223" stroke="#676F74" stroke-linecap="round" stroke-linejoin="round"/>
<path d="M221.719 118.284L219.414 120.193" stroke="#676F74" stroke-linecap="round" stroke-linejoin="round"/>
<path d="M209.843 124.411L201.031 131.309" stroke="#676F74" stroke-linecap="round" stroke-linejoin="round"/>
<path d="M233.448 152.111L231.68 153.526" stroke="#676F74" stroke-linecap="round" stroke-linejoin="round"/>
<path d="M247.003 141.268L236.262 149.86" stroke="#676F74" stroke-linecap="round" stroke-linejoin="round"/>
<path d="M240.87 150.08L235.891 153.912" stroke="#676F74" stroke-linecap="round" stroke-linejoin="round"/>
<path d="M190.797 73.0729H258.408" stroke="#676F74" stroke-linecap="round" stroke-linejoin="round"/>
<path d="M190.797 94.4164H258.408" stroke="#676F74" stroke-linecap="round" stroke-linejoin="round"/>
<path d="M190.797 115.76H258.408" stroke="#676F74" stroke-linecap="round" stroke-linejoin="round"/>
<path d="M190.797 137.098H258.408" stroke="#676F74" stroke-linecap="round" stroke-linejoin="round"/>
<path d="M190.797 158.442H258.408" stroke="#676F74" stroke-linecap="round" stroke-linejoin="round"/>
<path d="M199.84 32.1493L205.972 37.7344" stroke="#676F74" stroke-linecap="round" stroke-linejoin="round"/>
<path d="M249.206 32.1493L243.074 37.7344" stroke="#676F74" stroke-linecap="round" stroke-linejoin="round"/>
<path d="M8.83203 137.886H190.434" stroke="#676F74" stroke-linecap="round" stroke-linejoin="round"/>
<path d="M8.83203 141.086H190.434" stroke="#676F74" stroke-linecap="round" stroke-linejoin="round"/>
<path d="M8.83203 239.174H263.711" stroke="#676F74" stroke-linecap="round" stroke-linejoin="round"/>
<path d="M61.6406 140.968V239.056" stroke="#676F74" stroke-linecap="round" stroke-linejoin="round"/>
<path d="M118.992 140.968V239.056" stroke="#676F74" stroke-linecap="round" stroke-linejoin="round"/>
<path d="M176.344 140.968V239.056" stroke="#676F74" stroke-linecap="round" stroke-linejoin="round"/>
<path d="M233.695 183.312V239.056" stroke="#676F74" stroke-linecap="round" stroke-linejoin="round"/>
<path d="M261.032 178.847H188.672V183.312H261.032V178.847Z" stroke="#676F74" stroke-linecap="round" stroke-linejoin="round"/>
<path d="M8.83203 255.672H264.247" stroke="#263238" stroke-linecap="round" stroke-linejoin="round"/>
<path d="M44.8182 125.638C44.8182 125.638 44.8182 122.642 40.6267 118.451C36.4351 114.259 33.7659 111.863 33.7659 111.863C33.7659 111.863 31.6219 118.751 35.5347 122.942C38.3983 125.892 41.5037 128.598 44.8182 131.031V125.638Z" fill="#FF0030"/>
<path d="M38.7334 144.339C38.7334 144.339 38.7334 141.343 34.5366 137.152C30.3397 132.96 27.649 130.564 27.649 130.564C27.649 130.564 25.5532 137.452 29.4767 141.643C32.3404 144.593 35.4457 147.299 38.7602 149.732L38.7334 144.339Z" fill="#FF0030"/>
<path d="M44.554 130.741C44.554 130.741 44.8702 127.761 49.4798 124.036C54.0894 120.31 57.0267 118.209 57.0267 118.209C57.0267 118.209 58.3828 125.279 54.068 129.042C50.9083 131.672 47.534 134.034 43.9805 136.101L44.554 130.741Z" fill="#FF0030"/>
<path d="M37.2037 152.824C37.2037 152.824 37.8308 149.898 42.8103 146.676C47.7897 143.455 50.92 141.676 50.92 141.676C50.92 141.676 51.5256 148.853 46.841 152.133C43.4266 154.425 39.8264 156.428 36.0781 158.12L37.2037 152.824Z" fill="#FF0030"/>
<path d="M38.5898 176.907C38.5898 176.907 38.5898 173.911 42.7814 169.719C46.9729 165.528 49.669 163.132 49.669 163.132C49.669 163.132 51.7594 170.019 47.868 174.2C45.0065 177.154 41.9029 179.863 38.5898 182.299V176.907Z" fill="#FF0030"/>
<path d="M38.5132 182.776C38.5132 182.776 38.9366 179.812 35.383 175.063C31.8293 170.314 29.487 167.559 29.487 167.559C29.487 167.559 26.4318 174.077 29.6907 178.783C32.1067 182.108 34.7961 185.226 37.7307 188.104L38.5132 182.776Z" fill="#FF0030"/>
<path d="M34.3828 200.201C34.3828 200.201 34.3828 197.21 38.5743 193.019C42.7659 188.827 45.4619 186.432 45.4619 186.432C45.4619 186.432 47.5577 193.319 43.6663 197.511C40.802 200.458 37.6967 203.162 34.3828 205.594V200.201Z" fill="#FF0030"/>
<path d="M37.1801 216.008C37.1801 216.008 36.419 213.114 39.4153 207.968C42.4115 202.822 44.4108 199.848 44.4108 199.848C44.4108 199.848 48.1628 205.979 45.4828 211.023C43.4623 214.606 41.1439 218.013 38.5523 221.207L37.1801 216.008Z" fill="#FF0030"/>
<path d="M45.1998 124.888C44.9865 128.007 44.6017 131.111 44.0474 134.188C42.3911 142.764 38.2478 148.274 36.5916 156.008C34.9354 163.743 39.6897 173.696 38.4194 183.639C37.149 193.582 33.2791 199.092 34.3833 205.722C35.4874 212.352 41.2709 230.292 41.2709 230.292" stroke="#263238" stroke-linecap="round" stroke-linejoin="round"/>
<path d="M44.5117 132.73L49.0302 129.262" stroke="#263238" stroke-linecap="round" stroke-linejoin="round"/>
<path d="M44.7202 128.736L42.8281 125.376" stroke="#263238" stroke-linecap="round" stroke-linejoin="round"/>
<path d="M36.8438 155.633C36.8438 155.633 40.6279 152.797 44.5139 149.962" stroke="#263238" stroke-linecap="round" stroke-linejoin="round"/>
<path d="M38.7346 149.732C38.7346 149.732 35.5829 143.551 32.0078 139.451" stroke="#263238" stroke-linecap="round" stroke-linejoin="round"/>
<path d="M38.7344 181.168C40.8936 177.189 43.618 173.544 46.8226 170.346" stroke="#263238" stroke-linecap="round" stroke-linejoin="round"/>
<path d="M37.9946 185.37C36.8489 182.668 35.4791 180.067 33.8996 177.593C31.6912 174.339 31.375 173.916 31.375 173.916" stroke="#263238" stroke-linecap="round" stroke-linejoin="round"/>
<path d="M34.3828 205.706C35.3385 203.326 36.4764 201.023 37.7864 198.818C39.0974 196.774 40.5746 194.842 42.2031 193.04" stroke="#263238" stroke-linecap="round" stroke-linejoin="round"/>
<path d="M38.547 221.213C38.547 221.213 38.1021 217.616 39.6619 214.577C41.2216 211.538 43.0226 207.539 43.7623 205.963" stroke="#263238" stroke-linecap="round" stroke-linejoin="round"/>
<path d="M17.3651 165.624C17.3651 165.624 17.0382 163.743 19.2143 160.661C21.3905 157.579 22.8162 155.783 22.8162 155.783C22.8162 155.783 24.8798 159.873 22.8913 162.922C21.4182 165.084 19.765 167.118 17.9494 169.001L17.3651 165.624Z" fill="#FF0030"/>
<path d="M23.2082 176.714C23.2082 176.714 22.8866 174.832 25.0574 171.75C27.2282 168.668 28.6647 166.873 28.6647 166.873C28.6647 166.873 30.7229 170.962 28.7397 174.012C27.2651 176.175 25.612 178.21 23.7978 180.096L23.2082 176.714Z" fill="#FF0030"/>
<path d="M18.0828 168.84C18.0828 168.84 17.5468 167.007 14.2665 165.174C10.9862 163.341 8.90648 162.338 8.90648 162.338C8.90648 162.338 8.82072 166.921 11.9349 168.808C14.2021 170.114 16.574 171.229 19.0262 172.142L18.0828 168.84Z" fill="#FF0030"/>
<path d="M25.0876 181.865C25.0876 181.865 24.3747 180.096 20.9068 178.617C17.4389 177.137 15.2734 176.344 15.2734 176.344C15.2734 176.344 15.6754 180.911 18.9665 182.46C21.3582 183.52 23.8342 184.379 26.3686 185.027L25.0876 181.865Z" fill="#FF0030"/>
<path d="M26.8347 197.119C26.8347 197.119 26.5131 195.238 23.4257 193.067C20.3384 190.896 18.3927 189.68 18.3927 189.68C18.3927 189.68 17.8245 194.23 20.7243 196.433C22.838 197.973 25.0775 199.332 27.4189 200.496L26.8347 197.119Z" fill="#FF0030"/>
<path d="M27.5182 200.796C27.5182 200.796 26.9339 198.985 28.6438 195.619C30.3536 192.252 31.5221 190.259 31.5221 190.259C31.5221 190.259 34.1431 194.011 32.5941 197.318C31.4403 199.665 30.092 201.911 28.5634 204.034L27.5182 200.796Z" fill="#FF0030"/>
<path d="M32.7809 215.944C32.7809 215.944 33.0007 214.052 35.954 211.704C38.9074 209.356 40.778 208.038 40.778 208.038C40.778 208.038 41.6035 212.545 38.8377 214.914C36.8113 216.57 34.651 218.054 32.3789 219.353L32.7809 215.944Z" fill="#FF0030"/>
<path d="M32.0009 211.27C32.0009 211.27 31.6739 209.394 28.5919 207.218C25.5099 205.041 23.5803 203.835 23.5803 203.835C23.5803 203.835 23.0122 208.381 25.9066 210.589C28.0241 212.126 30.2651 213.485 32.6066 214.652L32.0009 211.27Z" fill="#FF0030"/>
<path d="M31.9588 221.475C31.9588 221.475 32.1196 219.578 29.6862 216.694C27.2527 213.81 25.6769 212.149 25.6769 212.149C25.6769 212.149 23.9778 216.399 26.2129 219.267C27.8693 221.292 29.6927 223.175 31.664 224.895L31.9588 221.475Z" fill="#FF0030"/>
<path d="M17.043 165.206C17.5103 167.137 18.0829 169.041 18.7582 170.909C20.7306 176.097 23.9252 179.115 25.8066 183.773C27.6879 188.431 25.8066 195.206 27.6611 201.3C29.5157 207.394 32.5602 210.412 32.587 214.7C32.6138 218.988 30.9254 230.866 30.9254 230.866" stroke="#263238" stroke-linecap="round" stroke-linejoin="round"/>
<path d="M18.3239 170.057L15.1133 168.374" stroke="#263238" stroke-linecap="round" stroke-linejoin="round"/>
<path d="M17.7617 167.575L18.5818 165.265" stroke="#263238" stroke-linecap="round" stroke-linejoin="round"/>
<path d="M25.6196 183.591C25.6196 183.591 22.9396 182.219 20.1953 180.862" stroke="#263238" stroke-linecap="round" stroke-linejoin="round"/>
<path d="M23.7969 180.096C24.5814 177.606 25.6195 175.203 26.895 172.924" stroke="#263238" stroke-linecap="round" stroke-linejoin="round"/>
<path d="M27.2068 199.805C25.4211 197.546 23.3157 195.56 20.957 193.909" stroke="#263238" stroke-linecap="round" stroke-linejoin="round"/>
<path d="M28.1211 202.361C28.5485 200.543 29.1257 198.762 29.847 197.039C30.8761 194.755 31.0316 194.461 31.0316 194.461" stroke="#263238" stroke-linecap="round" stroke-linejoin="round"/>
<path d="M32.4531 217.964C32.4531 217.964 34.5971 215.359 35.905 214.384C36.7035 213.795 37.4528 213.143 38.1454 212.433" stroke="#263238" stroke-linecap="round" stroke-linejoin="round"/>
<path d="M32.5969 214.722C31.7382 213.333 30.7742 212.012 29.7132 210.771C28.67 209.632 27.5352 208.579 26.3203 207.625" stroke="#263238" stroke-linecap="round" stroke-linejoin="round"/>
<path d="M31.6709 224.895C31.5605 223.446 31.0666 222.053 30.2398 220.859C28.9213 219.122 27.3669 216.812 26.7344 215.901" stroke="#263238" stroke-linecap="round" stroke-linejoin="round"/>
<path d="M47.3551 239.962C47.4277 235.989 46.2151 232.1 43.8979 228.872H27.8179C25.5073 232.098 24.297 235.983 24.3661 239.951C24.3661 246.565 27.4374 252.204 31.7575 254.423V255.672H40.1084V254.445H39.9583C44.2838 252.215 47.3551 246.56 47.3551 239.962Z" fill="#263238" stroke="#263238" stroke-linecap="round" stroke-linejoin="round"/>
<path d="M123.833 98.3774H105.148V105.244H123.833V98.3774Z" fill="#545454"/>
<path d="M123.836 98.3774H106.223V105.244H123.836V98.3774Z" fill="#263238"/>
<path d="M123.836 98.3774H106.223V99.9694H123.836V98.3774Z" fill="#545454"/>
<path d="M115.383 104.574H108.34L162.878 255.672H169.921L115.383 104.574Z" fill="#545454"/>
<path d="M116.66 104.574H109.617L164.155 255.672H171.198L116.66 104.574Z" fill="#263238"/>
<path d="M172.078 236.628H158.957V239.42H172.078V236.628Z" fill="white" stroke="#263238" stroke-miterlimit="10"/>
<path d="M161.363 207.089H148.242V209.882H161.363V207.089Z" fill="white" stroke="#263238" stroke-miterlimit="10"/>
<path d="M150.649 177.555H137.527V180.348H150.649V177.555Z" fill="white" stroke="#263238" stroke-miterlimit="10"/>
<path d="M139.934 148.016H126.812V150.809H139.934V148.016Z" fill="white" stroke="#263238" stroke-miterlimit="10"/>
<path d="M129.219 118.477H116.098V121.27H129.219V118.477Z" fill="white" stroke="#263238" stroke-miterlimit="10"/>
<path d="M129.781 130.103L138.952 123.639L142.136 99.9373C142.136 99.9373 132.585 120.064 131.32 122.492C130.055 124.92 129.781 130.103 129.781 130.103Z" fill="#263238" stroke="#263238" stroke-miterlimit="10"/>
<path d="M150.568 195.994C150.568 195.994 148.489 199.263 143.247 199.526C140.695 199.655 139.805 200.292 139.677 201.82C139.548 203.348 140.824 204.243 143.498 205.133C146.173 206.022 150.89 206.66 153.184 206.789C155.478 206.917 158.785 207.684 159.171 206.028C159.557 204.371 160.318 200.292 160.318 199.912C160.318 199.531 150.568 195.994 150.568 195.994Z" fill="#263238" stroke="#263238" stroke-miterlimit="10"/>
<path d="M138.862 118.418C138.192 126.716 137.426 137.586 137.426 143.895C137.426 155.108 141.505 165.174 143.032 168.867C144.56 172.56 147.197 180.289 147.32 180.798C147.444 181.307 148.725 188.441 149.234 190.226C149.743 192.011 149.995 193.287 149.995 193.287C149.995 193.287 148.596 195.967 148.596 197.109C148.596 198.25 150.166 196.61 150.166 196.61C152.292 197.381 154.463 198.018 156.668 198.518C160.104 199.285 160.956 201.493 160.956 201.493C160.956 201.493 161.187 199.017 161.444 188.19C161.701 177.362 155.264 155.976 155.264 152.685C155.264 149.394 157.681 120.707 157.681 120.707C157.681 120.707 144.308 120.836 140.229 118.928L138.862 118.418Z" fill="#5C5C5C" stroke="#263238" stroke-miterlimit="10"/>
<path d="M158.404 198.508C158.404 198.508 155.091 200.652 154.073 201.188C153.054 201.724 148.713 202.592 148.338 203.61C147.962 204.629 148.595 206.414 148.595 206.414C148.595 206.414 157.128 208.07 161.078 208.322C165.029 208.574 170.378 208.96 171.016 208.322C171.654 207.684 171.525 200.936 171.525 200.936C171.525 200.936 160.441 197.618 158.404 198.508Z" fill="#263238" stroke="#263238" stroke-miterlimit="10"/>
<path d="M149.543 134.214C149.543 134.214 151.199 154.727 152.223 158.292C153.247 161.856 158.934 181.184 159.191 183.601C159.438 185.673 159.522 187.761 159.443 189.846C159.32 190.607 158.682 191.502 158.553 193.41C158.424 195.318 158.424 198.508 158.424 198.508C159.949 198.759 161.392 199.371 162.632 200.292C164.669 201.82 167.992 202.201 169.638 201.949C171.283 201.697 171.546 201.82 171.546 200.93V197.618C171.546 195.195 171.294 193.03 171.546 188.57C171.798 184.111 170.19 170.266 169.402 166.192C168.614 162.119 166.218 156.635 166.089 154.979C165.961 153.323 168.769 140.073 168.769 135.742C168.769 131.411 168.008 121.222 168.008 121.222L151.574 120.836" fill="#5C5C5C"/>
<path d="M149.543 134.214C149.543 134.214 151.199 154.727 152.223 158.291C153.247 161.856 158.934 181.184 159.191 183.601C159.438 185.673 159.522 187.761 159.443 189.846C159.32 190.607 158.682 191.502 158.553 193.41C158.424 195.318 158.424 198.508 158.424 198.508C159.949 198.759 161.392 199.371 162.632 200.292C164.669 201.82 167.992 202.201 169.638 201.949C171.283 201.697 171.546 201.82 171.546 200.93V197.618C171.546 195.195 171.294 193.03 171.546 188.57C171.798 184.111 170.19 170.266 169.402 166.192C168.614 162.119 166.218 156.635 166.089 154.979C165.961 153.323 168.769 140.073 168.769 135.742C168.769 131.411 168.008 121.222 168.008 121.222L151.574 120.836" stroke="#263238" stroke-miterlimit="10"/>
<path d="M153.903 74.1556L150.376 74.3164C150.376 74.3164 143.327 85.5296 142.041 93.2212C140.755 100.913 138.52 120.804 138.52 120.804C138.52 120.804 142.69 122.246 151.18 122.412C159.67 122.578 167.844 122.09 167.844 122.09C167.844 122.09 172.003 100.275 173.445 91.1415C174.887 82.008 172.325 79.9284 169.758 77.6825C168.135 76.3035 166.217 75.3168 164.151 74.7988L153.903 74.1556Z" fill="#263238" stroke="#263238" stroke-miterlimit="10"/>
<path d="M138.825 116.955C142.494 118.213 146.329 118.916 150.205 119.04C156.449 119.201 168.311 118.719 168.311 118.719V123.044L161.879 123.366C161.879 123.366 161.879 136.026 161.718 136.503C161.557 136.98 162.517 137.468 156.272 137.468C150.028 137.468 144.094 136.348 143.773 135.061C143.451 133.775 144.845 122.916 144.845 122.916L138.461 120.804L138.825 116.955Z" fill="white" stroke="#263238" stroke-miterlimit="10"/>
<path d="M150.116 121.838L147.312 121.79L147.409 116.119C147.417 115.747 147.573 115.393 147.841 115.135C148.109 114.877 148.468 114.736 148.84 114.742C149.211 114.75 149.564 114.904 149.822 115.171C150.08 115.438 150.222 115.796 150.218 116.167L150.116 121.838Z" fill="white" stroke="#263238" stroke-miterlimit="10"/>
<path d="M148.776 121.693L148.609 130.961" stroke="#263238" stroke-miterlimit="10"/>
<path d="M150.485 121.603L146.824 121.538L146.802 122.76L150.463 122.825L150.485 121.603Z" fill="white" stroke="#263238" stroke-miterlimit="10"/>
<path d="M148.649 120.916C148.575 120.92 148.5 120.908 148.43 120.881C148.36 120.854 148.296 120.813 148.243 120.76C148.19 120.707 148.149 120.643 148.122 120.573C148.095 120.503 148.083 120.428 148.087 120.353V116.312C148.087 116.239 148.101 116.167 148.13 116.101C148.158 116.034 148.2 115.973 148.253 115.923C148.306 115.873 148.368 115.834 148.436 115.809C148.504 115.784 148.577 115.772 148.649 115.776C148.722 115.772 148.795 115.784 148.863 115.809C148.931 115.834 148.993 115.873 149.046 115.923C149.099 115.973 149.14 116.034 149.169 116.101C149.198 116.167 149.212 116.239 149.212 116.312V120.332C149.219 120.409 149.21 120.486 149.184 120.559C149.159 120.631 149.118 120.698 149.065 120.753C149.011 120.808 148.946 120.852 148.875 120.88C148.803 120.908 148.726 120.92 148.649 120.916Z" fill="white" stroke="#263238" stroke-miterlimit="10"/>
<path d="M156.035 123.151L153.227 123.098L153.328 117.432C153.331 117.248 153.37 117.066 153.444 116.897C153.517 116.728 153.623 116.575 153.755 116.447C153.888 116.319 154.044 116.219 154.216 116.151C154.387 116.084 154.57 116.051 154.754 116.055C154.939 116.057 155.121 116.095 155.29 116.168C155.459 116.241 155.613 116.347 155.741 116.48C155.869 116.613 155.969 116.769 156.036 116.941C156.104 117.113 156.136 117.296 156.132 117.48L156.035 123.151Z" fill="white" stroke="#263238" stroke-miterlimit="10"/>
<path d="M154.694 123.007L154.527 132.274" stroke="#263238" stroke-miterlimit="10"/>
<path d="M156.161 123.272L152.5 123.199L152.476 124.421L156.136 124.494L156.161 123.272Z" fill="white" stroke="#263238" stroke-width="1.0002" stroke-miterlimit="10"/>
<path d="M154.564 122.208C154.414 122.208 154.269 122.148 154.162 122.042C154.056 121.935 153.996 121.791 153.996 121.64V117.625C153.996 117.551 154.011 117.477 154.039 117.408C154.068 117.339 154.11 117.276 154.162 117.224C154.215 117.171 154.278 117.129 154.347 117.1C154.416 117.072 154.49 117.057 154.564 117.057C154.714 117.059 154.857 117.119 154.963 117.225C155.068 117.332 155.127 117.476 155.127 117.625V121.672C155.119 121.816 155.056 121.952 154.952 122.051C154.847 122.151 154.709 122.207 154.564 122.208Z" fill="white" stroke="#263238" stroke-miterlimit="10"/>
<path d="M145.382 123.87C147.261 124.373 149.214 124.537 151.15 124.352L150.651 136.68C150.651 136.68 146.508 137.559 144.246 134.793L145.382 123.87Z" fill="white" stroke="#263238" stroke-miterlimit="10"/>
<path d="M151.151 124.352C151.151 124.352 153.665 125.612 158.687 124.856L159.314 137.034C159.314 137.034 154.292 138.792 150.652 136.659L151.151 124.352Z" fill="white" stroke="#263238" stroke-miterlimit="10"/>
<path d="M140.294 91.4256C140.294 91.4256 130.051 91.6668 128.706 91.179C127.36 90.6913 127.977 88.1292 128.952 82.3994C129.928 76.6695 136.022 56.7839 136.022 56.7839C136.022 56.7839 133.953 54.5917 133.83 53.3696C133.707 52.1475 134.805 47.6398 134.805 47.6398C134.805 47.6398 132.608 48.6153 132.002 48.0042C131.396 47.3932 133.83 45.0777 133.83 45.0777C133.83 45.0777 136.145 44.3434 137.732 45.4422C139.318 46.541 140.905 48.3687 141.146 50.6896C141.387 53.0105 140.658 58.006 140.047 61.6669C139.436 65.3278 138.343 78.374 138.343 78.374C138.343 78.374 143.832 74.8364 145.536 74.086C147.918 73.0622 150.549 72.7657 153.099 73.2338C153.099 73.2338 151.025 82.3833 149.931 85.5618C148.838 88.7402 141.977 103.507 139.174 109.971C136.37 116.435 129.783 130.098 129.783 130.098C129.783 130.098 128.807 124.738 131.734 117.046C134.661 109.355 140.294 91.4256 140.294 91.4256Z" fill="#B2B2B2" stroke="#263238" stroke-miterlimit="10"/>
<path d="M134.872 58.5312L141.117 59.421L140.227 63.1141L134.234 61.967L134.872 58.5312Z" fill="white" stroke="#263238" stroke-miterlimit="10"/>
<path d="M133.855 60.8253L141.359 62.2243L139.215 77.0018C139.215 77.0018 144.039 74.3218 146.349 73.5607C148.659 72.7996 152.341 73.5607 152.341 73.5607C152.341 73.5607 153.274 74.5952 152.17 77.3127C151.066 80.0302 147.882 90.6162 146.349 94.4647C144.816 98.3132 129.283 131.797 129.283 131.797C129.283 131.797 128.645 126.319 130.049 121.988C131.453 117.657 139.472 91.4041 139.472 91.4041C139.472 91.4041 129.663 92.042 128.516 91.6614C127.369 91.2808 127.498 87.2019 127.621 86.1835C127.744 85.1651 133.855 60.8253 133.855 60.8253Z" fill="#FF0030" stroke="#263238" stroke-miterlimit="10"/>
<path d="M139.53 104.863L152.329 73.5607L149.714 73.2605L137.429 104.038L135.971 103.555C135.724 104.322 135.285 105.571 135.027 106.369L136.346 107.296L139.171 109.976C139.776 108.717 140.838 106.594 141.4 105.426L139.53 104.863Z" fill="white" stroke="#263238" stroke-miterlimit="10"/>
<path d="M151.413 50.711C151.413 50.711 153.889 45.3885 156.612 44.0271C159.335 42.6657 164.288 44.6435 164.288 44.6435C164.288 44.6435 170.848 47.4897 172.59 51.9492C174.332 56.4087 171.229 64.5773 171.229 64.5773L151.043 51.5793L151.413 50.711Z" fill="white" stroke="#263238" stroke-miterlimit="10"/>
<path d="M157.977 50.0785C158.496 49.1797 158.946 48.2426 159.322 47.2752C159.586 46.3088 159.543 45.2841 159.199 44.3433C160.4 44.2336 161.61 44.4004 162.736 44.8311" stroke="#263238" stroke-miterlimit="10"/>
<path d="M149.807 57.0251C149.807 57.0251 145.723 53.3106 145.723 51.9492C145.723 50.5877 156.614 49.4729 159.214 50.3412C161.813 51.2095 165.646 56.7732 167.254 58.3812C168.862 59.9892 173.686 63.2052 172.7 65.4349C171.713 67.6647 168.492 69.4013 164.66 67.0429C160.827 64.6845 150.08 57.5182 150.08 57.5182C151.442 56.2801 152.31 57.3949 152.31 57.3949" fill="white"/>
<path d="M149.807 57.0251C149.807 57.0251 145.723 53.3106 145.723 51.9492C145.723 50.5877 156.614 49.4729 159.214 50.3412C161.813 51.2095 165.646 56.7732 167.254 58.3812C168.862 59.9892 173.686 63.2052 172.7 65.4349C171.713 67.6647 168.492 69.4013 164.66 67.0429C160.827 64.6845 150.08 57.5182 150.08 57.5182C151.442 56.2801 152.31 57.3949 152.31 57.3949" stroke="#263238" stroke-miterlimit="10"/>
<path d="M168.626 61.2327C168.626 61.2327 163.92 55.6637 160.082 54.0557C156.245 52.4477 151.785 53.5572 150.676 54.7954C149.566 56.0335 147.331 61.9778 147.208 63.8323C147.084 65.6869 146.865 71.3846 147.937 72.0063C149.009 72.6281 152.519 72.9926 152.519 72.9926C152.11 75.653 151.904 78.3408 151.903 81.0326C152.026 84.2486 154.288 84.1467 156.02 83.4017C157.751 82.6567 164.901 75.7101 164.901 74.8257C164.838 73.9106 164.713 73.0008 164.526 72.1028L166.016 68.0131C166.016 68.0131 170.727 65.1938 168.626 61.2327Z" fill="#B2B2B2" stroke="#263238" stroke-miterlimit="10"/>
<path d="M162.777 55.6583C163.17 56.3493 163.432 57.1071 163.548 57.8934C163.548 58.8797 162.434 64.5774 162.434 64.5774C162.434 64.5774 163.795 65.317 164.165 64.2022C164.535 63.0873 165.033 60.2411 168.624 61.2327C166.863 59.1866 164.905 57.3194 162.777 55.6583Z" fill="#263238" stroke="#263238" stroke-miterlimit="10"/>
<path d="M152.651 63.8323C152.281 63.709 149.435 62.7174 149.312 61.9778C149.188 61.2381 152.774 58.3866 152.774 58.3866V57.1484C152.774 57.1484 151.702 56.1461 150.051 57.5182" stroke="#263238" stroke-miterlimit="10"/>
<path d="M151.152 63.5857C151.152 63.5857 147.068 62.7174 147.684 65.317C147.877 66.1263 152.021 66.807 153.382 66.925C154.744 67.0429 158.083 67.1715 157.466 65.6868C156.85 64.2021 152.76 63.2158 151.152 63.5857Z" fill="#263238" stroke="#263238" stroke-miterlimit="10"/>
<path d="M155.875 57.6415C155.875 57.6415 158.721 56.1568 159.959 58.7564" stroke="#263238" stroke-miterlimit="10"/>
<path d="M158.218 60.091C158.121 60.702 157.767 61.163 157.43 61.0933C157.092 61.0236 156.894 60.5037 156.996 59.898C157.097 59.2923 157.446 58.826 157.783 58.8957C158.121 58.9654 158.314 59.496 158.218 60.091Z" fill="#263238"/>
<path d="M151.153 59.1261C151.073 59.63 150.784 59.9998 150.505 59.9516C150.226 59.9033 150.065 59.4692 150.146 58.9653C150.226 58.4615 150.516 58.097 150.794 58.1399C151.073 58.1828 151.25 58.6277 151.153 59.1261Z" fill="#263238"/>
<path d="M155.977 60.9861C155.977 60.9861 156.593 62.5941 158.946 62.4708" stroke="#263238" stroke-miterlimit="10"/>
<path d="M152.53 72.9926L157.236 73.3678L152.16 77.3288L152.53 72.9926Z" fill="#263238" stroke="#263238" stroke-miterlimit="10"/>
<path d="M164.91 74.8524C164.91 74.8524 157.974 89.8336 156.736 93.8C155.498 97.7664 157.095 115.433 157.095 118.901C157.095 122.369 159.239 138.792 159.239 138.792C159.239 138.792 166.791 137.924 171.251 135.946C173.685 134.904 176.007 133.618 178.181 132.108L171.09 109.987C171.09 109.987 178.658 90.2088 179.666 85.5027C180.674 80.7967 178.058 78.1971 174.842 76.9589C171.626 75.7207 164.91 74.8524 164.91 74.8524Z" fill="#FF0030" stroke="#263238" stroke-miterlimit="10"/>
<path d="M171.092 110.003L162.987 108.079C162.987 108.079 161.594 98.5115 164.638 88.9653C167.683 79.4192 171.343 76.1657 171.343 76.1657L166.873 75.351C166.873 75.351 162.585 84.4951 160.575 89.9784C158.565 95.4617 159.128 108.894 159.128 108.894L156.582 109.617C156.737 111.311 156.845 112.372 156.989 113.83C159.589 113.128 163.823 112.41 164.82 112.549C165.715 112.678 169.585 113.369 172.324 113.863L171.092 110.003Z" fill="white" stroke="#263238" stroke-miterlimit="10"/>
<path d="M132.878 64.0895L130.862 58.2632H126.28L124.446 64.2074C124.026 64.9416 123.806 65.7734 123.809 66.6194C123.808 67.3737 123.982 68.1179 124.317 68.7937C124.652 69.4696 125.139 70.0587 125.74 70.515C126.34 70.9713 127.038 71.2824 127.779 71.424C128.52 71.5656 129.284 71.5338 130.01 71.3311C130.737 71.1285 131.407 70.7604 131.967 70.2557C132.528 69.7511 132.964 69.1235 133.242 68.4222C133.52 67.7209 133.631 66.9648 133.568 66.2131C133.505 65.4615 133.269 64.7346 132.878 64.0895Z" fill="white" stroke="#263238" stroke-miterlimit="10"/>
<path d="M130.987 54.5487H126.281V58.2632H130.987V54.5487Z" fill="#263238" stroke="#263238" stroke-miterlimit="10"/>
<path d="M128.388 40.6824H126.035V43.1587H128.388V40.6824Z" fill="#263238" stroke="#263238" stroke-miterlimit="10"/>
<path d="M126.779 42.7889C125.952 44.4822 124.911 46.0621 123.681 47.4897C121.95 49.3496 122.941 50.7057 124.303 50.9576C125.664 51.2095 128.017 51.2041 128.017 52.0725V54.4255" stroke="#263238" stroke-miterlimit="10"/>
<path d="M127.647 43.282C127.647 43.282 123.809 48.3579 123.933 49.1029C124.056 49.848 128.263 50.5877 129.132 50.9575C130 51.3273 129.748 54.4254 129.748 54.4254" stroke="#263238" stroke-miterlimit="10"/>
<path d="M126.781 40.8057V7.62732" stroke="#263238" stroke-miterlimit="10"/>
<path d="M128.02 7.50403V41.4275" stroke="#263238" stroke-miterlimit="10"/>
<path d="M137.548 76.5837L135.693 73.1158C135.693 73.1158 134.455 67.3002 134.455 66.807C134.455 66.3139 132.847 62.9693 132.226 61.8544C131.604 60.7395 130.987 60.8628 130.987 62.101C130.987 63.3391 132.102 65.4402 132.102 65.8154C132.028 66.2811 131.904 66.7375 131.732 67.1769C131.732 67.1769 126.533 63.4624 125.911 62.8406C125.29 62.2189 124.18 63.0926 124.18 63.8322C124.206 64.4676 124.331 65.0951 124.55 65.6922C124.673 66.062 123.934 68.6616 123.934 69.5299C124.043 70.6372 124.427 71.6999 125.048 72.6226C125.665 73.6142 130.119 75.099 130.119 75.099L134.085 80.668L137.548 76.5837Z" fill="#B2B2B2" stroke="#263238" stroke-miterlimit="10"/>
<path d="M140.398 77.452L136.93 74.6058L131.656 79.7354C131.656 79.7354 135.408 83.6589 135.767 83.6589C136.126 83.6589 140.398 77.452 140.398 77.452Z" fill="white" stroke="#263238" stroke-miterlimit="10"/>
<path d="M169.741 79.9284L158.721 88.4722L139.655 76.4604L133.711 84.2593C133.711 84.2593 145.101 93.2962 148.939 97.0107C152.776 100.725 158.844 104.193 161.803 102.585C164.761 100.977 176.661 91.9348 177.03 91.5649" fill="#FF0030"/>
<path d="M169.741 79.9284L158.721 88.4722L139.655 76.4604L133.711 84.2593C133.711 84.2593 145.101 93.2962 148.939 97.0107C152.776 100.725 158.844 104.193 161.803 102.585C164.761 100.977 176.661 91.9348 177.03 91.5649" stroke="#263238" stroke-miterlimit="10"/>
<path d="M161.566 86.2424C161.566 86.2424 168.626 86.1191 169.864 97.0106L174.94 93.2961C174.94 93.2961 173.825 84.6344 165.774 83.2676L161.566 86.2424Z" fill="white" stroke="#263238" stroke-miterlimit="10"/>
<path d="M142.378 38.3294H112.668L122.648 26.4463H132.398L142.378 38.3294Z" fill="white" stroke="#263238" stroke-miterlimit="10"/>
<path d="M132.103 21.4937H122.648V26.4463H132.103V21.4937Z" fill="white" stroke="#263238" stroke-miterlimit="10"/>
<path d="M117.769 35.5529L116.531 37.1501" stroke="#263238" stroke-miterlimit="10"/>
<path d="M118.941 34.0306L124.618 26.7035V22.9944" stroke="#263238" stroke-miterlimit="10"/>
<path d="M137.811 43.609C137.811 43.609 136.6 42.5906 135.71 42.5691C134.82 42.5477 132.14 43.3678 132.575 44.0163C133.009 44.6649 137.811 43.609 137.811 43.609Z" fill="#B2B2B2" stroke="#263238" stroke-miterlimit="10"/>
<path d="M139.612 44.8096C139.121 44.2665 138.502 43.854 137.812 43.6089C136.74 43.282 133.775 44.2629 133.861 44.7989C133.947 45.3349 136.225 45.4153 136.766 45.3349C137.308 45.2545 139.612 44.8096 139.612 44.8096Z" fill="#B2B2B2" stroke="#263238" stroke-miterlimit="10"/>
<path d="M142.099 49.0976C142.099 49.0976 141.327 44.9704 140.716 44.4237C140.105 43.8769 136.717 44.7238 136.235 45.099C135.752 45.4742 136.535 46.3211 136.889 46.4176C137.725 46.4763 138.564 46.4924 139.403 46.4658L139.789 49.2262L142.099 49.0976Z" fill="#B2B2B2" stroke="#263238" stroke-miterlimit="10"/>
<path d="M132.875 46.9429L134.638 44.756L139.055 48.315C139.344 48.5491 139.528 48.8883 139.567 49.258C139.607 49.6278 139.498 49.998 139.264 50.2875C139.03 50.5764 138.691 50.7606 138.321 50.7998C137.951 50.839 137.581 50.7299 137.292 50.4965L132.875 46.9429Z" fill="white" stroke="#263238" stroke-miterlimit="10"/>
<path d="M133.814 45.9727L126.594 40.1571" stroke="#263238" stroke-miterlimit="10"/>
<path d="M132.832 47.3765L135.129 44.5259L134.177 43.7591L131.88 46.6098L132.832 47.3765Z" fill="white" stroke="#263238" stroke-miterlimit="10"/>
<path d="M138.341 55.0794C137.854 53.2463 139.681 50.443 139.681 50.443C138.94 50.0796 138.243 49.6298 137.607 49.103C137.001 48.492 137.001 47.0287 137.854 47.2753C138.706 47.5218 141.997 48.8833 141.997 48.8833C142.37 49.1003 142.666 49.4294 142.842 49.8238C143.018 50.2182 143.066 50.658 142.978 51.0809C142.731 52.6889 140.657 57.2985 140.657 57.2985" fill="#B2B2B2"/>
<path d="M138.341 55.0794C137.854 53.2463 139.681 50.443 139.681 50.443C138.94 50.0796 138.243 49.6298 137.607 49.103C137.001 48.492 137.001 47.0287 137.854 47.2753C138.706 47.5218 141.997 48.8833 141.997 48.8833C142.37 49.1003 142.666 49.4294 142.842 49.8238C143.018 50.2182 143.066 50.658 142.978 51.0809C142.731 52.6889 140.657 57.2985 140.657 57.2985" stroke="#263238" stroke-miterlimit="10"/>
<path d="M153.262 189.932H94.6562V192.735H153.262V189.932Z" fill="#545454"/>
<path d="M117.471 127.327L71.1445 255.672H75.6416L119.958 132.89L118.028 127.327H117.471Z" fill="#545454"/>
<path d="M116.194 127.327L69.8672 255.672H71.8182L118.08 127.493L118.027 127.327H116.194Z" fill="#263238"/>
<path d="M126.856 104.574H119.812L174.351 255.672H181.394L126.856 104.574Z" fill="#545454"/>
<path d="M128.125 104.574H121.082L175.62 255.672H182.663L128.125 104.574Z" fill="#263238"/>
<path d="M129.19 127.327L82.8633 255.672H87.355L131.677 132.89L129.742 127.327H129.19Z" fill="#545454"/>
<path d="M127.916 127.327L81.5898 255.672H83.5355L129.803 127.493L129.744 127.327H127.916Z" fill="#263238"/>
<path d="M132.349 98.3774H113.664V105.244H132.349V98.3774Z" fill="#545454"/>
<path d="M132.355 98.3774H114.742V105.244H132.355V98.3774Z" fill="#454545"/>
</svg>
